<?xml version="1.0"?>
<svg xmlns="http://www.w3.org/2000/svg" width="26" height="28" viewBox="0 0 26 28" fill="none">
<path fill-rule="evenodd" clip-rule="evenodd" d="M13.0057 0.882812C16.4456 0.944974 19.7236 2.35511 22.1343 4.80976C24.545 7.26441 25.8957 10.5674 25.8957 14.0078C25.8957 17.4483 24.545 20.7512 22.1343 23.2059C19.7236 25.6605 16.4456 27.0707 13.0057 27.1328C9.56579 27.0707 6.28779 25.6605 3.87709 23.2059C1.4664 20.7512 0.115723 17.4483 0.115723 14.0078C0.115723 10.5674 1.4664 7.26441 3.87709 4.80976C6.28779 2.35511 9.56579 0.944974 13.0057 0.882812Z" fill="white"/>
<path fill-rule="evenodd" clip-rule="evenodd" d="M13.0057 0.882812C16.4456 0.944974 19.7236 2.35511 22.1343 4.80976C24.545 7.26441 25.8957 10.5674 25.8957 14.0078C25.8957 17.4483 24.545 20.7512 22.1343 23.2059C19.7236 25.6605 16.4456 27.0707 13.0057 27.1328C9.56579 27.0707 6.28779 25.6605 3.87709 23.2059C1.4664 20.7512 0.115723 17.4483 0.115723 14.0078C0.115723 10.5674 1.4664 7.26441 3.87709 4.80976C6.28779 2.35511 9.56579 0.944974 13.0057 0.882812ZM10.28 18.2714L7.06569 15.0542C6.80258 14.7902 6.65485 14.4327 6.65485 14.06C6.65485 13.6872 6.80258 13.3297 7.06569 13.0657C7.33013 12.8028 7.68783 12.6553 8.06069 12.6553C8.43354 12.6553 8.79124 12.8028 9.05569 13.0657L11.32 15.3328L16.9557 9.6971C17.2197 9.43399 17.5772 9.28626 17.95 9.28626C18.3227 9.28626 18.6802 9.43399 18.9443 9.6971C19.207 9.9613 19.3545 10.3188 19.3545 10.6914C19.3545 11.064 19.207 11.4215 18.9443 11.6857L12.3128 18.3171C12.1782 18.451 12.0179 18.5564 11.8416 18.6269C11.6653 18.6973 11.4765 18.7314 11.2867 18.7272C11.0968 18.7229 10.9098 18.6803 10.7368 18.602C10.5638 18.5237 10.4084 18.4112 10.28 18.2714Z" fill="#77FF2D"/>
</svg>
